<svg version="1.1" id="Layer_1" xmlns="http://www.w3.org/2000/svg" xmlns:xlink="http://www.w3.org/1999/xlink" x="0px" y="0px"
	 width="100%" viewBox="0 0 347 361" enable-background="new 0 0 347 361" xml:space="preserve">
<path fill="#010101" opacity="1.000000" stroke="none" 
	d="
M201.000000,362.000000 
	C134.000015,362.000000 67.500023,362.000000 1.000027,362.000000 
	C1.000018,241.666702 1.000018,121.333397 1.000009,1.000075 
	C116.666618,1.000050 232.333237,1.000050 347.999878,1.000025 
	C347.999939,121.333260 347.999939,241.666519 347.999969,361.999878 
	C299.166656,362.000000 250.333328,362.000000 201.000000,362.000000 
M325.082123,244.349579 
	C324.992737,243.899002 324.903320,243.448410 325.070312,242.092026 
	C324.980682,228.062653 324.891083,214.033279 325.068451,199.175583 
	C324.979492,197.449051 324.890533,195.722504 325.059570,193.090714 
	C325.064850,164.813660 325.090485,136.536560 325.033630,108.259628 
	C325.029419,106.172264 324.430878,104.086105 324.083252,101.314476 
	C323.408051,100.159492 322.732849,99.004509 322.015167,97.241867 
	C321.384888,96.479271 320.754608,95.716682 320.029846,94.304924 
	C319.401245,93.734772 318.772644,93.164619 317.813324,91.982735 
	C314.465332,90.012245 311.170258,87.944717 307.761200,86.086227 
	C272.105103,66.647682 236.306000,47.466476 200.834045,27.698027 
	C189.540115,21.403946 179.742371,22.875418 169.444763,29.910709 
	C169.126297,29.986126 168.911270,30.177662 168.065994,30.612677 
	C154.387390,38.141861 140.708801,45.671047 126.559990,53.203266 
	C126.216988,53.290997 126.012527,53.508789 125.246368,53.978493 
	C122.594124,55.548912 119.941879,57.119335 116.664627,58.740139 
	C115.072838,59.728622 113.481049,60.717102 111.162041,61.799507 
	C107.376442,63.949268 103.590843,66.099030 99.071892,68.328812 
	C97.054176,69.571785 95.036453,70.814758 92.319374,72.142723 
	C89.696777,73.706291 87.074181,75.269859 83.816727,77.012352 
	C75.842705,81.581131 67.868675,86.149918 59.186672,90.756584 
	C57.381622,92.502892 55.576576,94.249199 53.224960,96.233307 
	C52.742222,97.293465 52.259487,98.353615 51.178352,100.002838 
	C50.722546,102.408485 49.873253,104.813461 49.869198,107.219872 
	C49.792713,152.591827 49.741013,197.964310 49.965202,243.335312 
	C49.982674,246.871475 52.076778,250.397369 53.359005,254.578400 
	C59.304047,258.673523 65.012566,263.175018 71.233498,266.796143 
	C104.967033,286.432068 138.802963,305.892792 172.680008,325.280365 
	C176.198227,327.293823 180.219879,328.427582 184.600906,330.309662 
	C186.389984,330.177338 188.179062,330.045013 190.688843,330.008789 
	C191.789703,329.602478 192.890564,329.196167 194.567200,328.849091 
	C195.029694,328.521790 195.492188,328.194489 196.549332,327.890289 
	C197.025406,327.570465 197.501480,327.250671 198.634232,326.898956 
	C199.517441,326.302704 200.400650,325.706482 201.970840,325.024658 
	C205.052094,323.227539 208.133347,321.430389 211.866730,319.364960 
	C213.043259,318.624298 214.219803,317.883636 216.054092,317.015259 
	C219.432419,315.190887 222.810745,313.366516 226.826645,311.409363 
	C227.556595,310.953522 228.286545,310.497711 229.616241,310.072144 
	C230.419815,309.487366 231.223404,308.902588 232.758743,308.291870 
	C235.151993,306.802734 237.545242,305.313629 240.604904,303.767426 
	C241.730881,303.057037 242.856857,302.346619 244.629547,301.477936 
	C247.629349,299.644745 250.629135,297.811584 254.354675,295.862030 
	C264.267212,290.078766 274.179749,284.295502 284.765594,278.342102 
	C285.881317,277.575684 286.997040,276.809235 288.776703,275.994110 
	C290.202240,275.038483 291.627777,274.082855 293.590759,273.101013 
	C294.160004,272.721375 294.729248,272.341736 296.036255,271.838409 
	C297.894287,270.651367 299.752319,269.464325 302.219574,268.099609 
	C303.835907,267.132111 305.452240,266.164612 307.678314,265.096497 
	C308.489746,264.496399 309.301208,263.896332 310.760437,263.145264 
	C312.222321,262.236542 313.684174,261.327850 315.810059,260.172638 
	C321.433228,256.671661 324.817352,251.839706 325.082123,244.349579 
z"/>
<path fill="#FAFAFA" opacity="1.000000" stroke="none" 
	d="
M125.946594,53.856640 
	C126.012527,53.508789 126.216988,53.290997 127.036438,53.459396 
	C128.966827,58.433037 132.231476,61.076977 136.875275,62.292999 
	C136.544754,63.181946 136.338364,63.777321 135.924408,64.638229 
	C128.813141,68.607452 121.909439,72.311134 114.760559,75.741516 
	C111.661049,74.328323 110.867020,75.681702 110.938393,78.523911 
	C109.734375,79.259987 108.698128,79.757530 107.267670,80.100571 
	C104.380150,79.543228 101.286369,78.030746 99.526375,78.983116 
	C96.457901,80.643532 93.265656,83.257935 93.782410,88.078644 
	C87.715164,91.527397 81.858963,94.679497 75.930450,97.494667 
	C74.341232,95.171341 72.824333,93.184944 70.846275,90.594650 
	C69.856812,91.338982 67.951668,92.772141 66.046524,94.205299 
	C66.904907,96.592598 66.353371,98.511719 66.600540,100.321770 
	C66.733627,101.296432 68.235451,102.084198 69.453400,103.051468 
	C79.093292,108.244843 88.392204,113.356407 97.707069,118.438721 
	C126.202202,133.986084 154.744064,149.448669 183.161224,165.137177 
	C187.739090,167.664551 191.393372,167.826538 196.015274,165.026123 
	C206.187698,158.862610 216.744354,153.333221 227.588074,147.666534 
	C228.957367,147.006363 229.882751,146.224701 231.016449,145.190857 
	C234.563828,143.196594 237.902893,141.454483 241.677795,139.790161 
	C244.307281,140.164444 246.175583,140.012405 246.187836,136.770905 
	C248.133423,135.615540 249.894073,134.735977 251.979370,134.000198 
	C253.297195,134.678329 254.290359,135.212677 256.683014,136.500000 
	C255.738098,134.046143 255.339661,133.011398 255.107361,131.669678 
	C260.843597,128.231613 266.413727,125.100525 272.166992,122.202072 
	C272.875671,121.891449 273.401154,121.348198 274.134521,120.548767 
	C276.259949,119.313553 278.177490,118.334511 280.484161,117.509430 
	C281.554474,117.036041 282.235657,116.408714 283.068298,115.563271 
	C283.719147,115.189545 284.218567,115.033936 285.040314,115.078064 
	C288.847626,119.447624 293.696533,119.000359 296.949615,116.443962 
	C298.875122,114.930847 298.266052,110.192398 299.007507,106.637741 
	C300.407928,105.714325 301.597473,105.057442 302.859192,104.809891 
	C303.460663,109.619324 305.905334,112.476662 310.001892,114.347549 
	C309.999603,115.156158 310.000305,115.618240 309.776489,116.333679 
	C301.070648,121.406250 292.589386,126.225464 283.771881,130.901581 
	C279.675964,130.615875 277.256775,132.428314 275.763977,136.153656 
	C273.360596,137.562347 271.156281,138.699539 268.762024,139.634277 
	C268.047089,139.963043 267.522095,140.494263 266.930023,141.132660 
	C266.862976,141.239868 266.612457,141.205719 266.249756,141.139221 
	C263.859741,140.361176 262.647919,140.714722 262.832672,143.454346 
	C257.468750,146.494308 252.355392,149.299438 246.931702,151.959503 
	C245.618546,151.291321 244.615753,150.768173 242.685486,149.761185 
	C243.352661,151.917221 243.670319,152.943787 243.808289,154.267044 
	C240.777679,156.051880 237.926773,157.540024 234.719086,159.022247 
	C233.571014,159.666260 232.779724,160.316208 231.800781,161.259201 
	C225.387100,164.958710 219.161072,168.365189 212.750702,171.582245 
	C212.028275,171.874161 211.490158,172.355515 210.718369,173.111145 
	C208.578339,174.287689 206.343430,174.820236 204.830246,176.164963 
	C201.043747,179.529831 194.644150,180.018082 194.712540,187.589523 
	C195.025986,222.292831 194.844711,257.000610 194.841339,291.706787 
	C194.840683,298.409302 194.841232,305.111816 194.841232,312.078156 
	C196.607834,311.473053 197.541672,311.153168 198.893127,310.879028 
	C200.542648,309.987030 201.774536,309.049347 203.106995,307.949219 
	C203.207581,307.786774 203.586823,307.833496 203.957855,307.987305 
	C207.346664,309.685791 208.214432,308.409271 208.045258,305.218323 
	C215.130508,301.167419 221.992355,297.377319 228.984924,293.911804 
	C230.260971,294.294464 231.502762,294.659912 232.528839,294.337921 
	C234.037552,293.864563 235.346497,292.362976 236.820450,292.237366 
	C243.559418,291.663086 243.968658,291.381653 244.169449,284.683289 
	C255.843094,277.757538 267.336823,271.120941 278.877136,264.909485 
	C279.583405,269.263519 279.945068,273.380981 285.579407,273.258118 
	C286.027374,273.248352 286.513428,274.985260 286.654724,275.804138 
	C285.582550,276.635956 284.837433,277.574097 284.092316,278.512268 
	C274.179749,284.295502 264.267212,290.078766 253.612030,295.917969 
	C248.775742,296.085632 245.347519,297.241638 243.982819,301.636200 
	C242.856857,302.346619 241.730881,303.057037 240.036835,303.557556 
	C234.472855,301.936676 232.370560,303.340729 232.026978,308.317810 
	C231.223404,308.902588 230.419815,309.487366 229.248901,309.696777 
	C228.292572,308.976410 227.703598,308.631378 227.114624,308.286346 
	C226.806107,309.371613 226.497589,310.456879 226.189087,311.542175 
	C222.810745,313.366516 219.432419,315.190887 215.333435,317.012360 
	C211.955368,315.909424 210.512833,316.382782 211.214600,319.633240 
	C208.133347,321.430389 205.052094,323.227539 201.257721,325.038788 
	C199.688904,325.678894 198.833237,326.304901 197.977539,326.930878 
	C197.501480,327.250671 197.025406,327.570465 196.082977,327.675049 
	C195.074890,327.903168 194.533157,328.346527 193.991425,328.789856 
	C192.890564,329.196167 191.789703,329.602478 190.075104,329.700836 
	C187.643555,329.585083 185.825745,329.777313 184.007935,329.969543 
	C180.219879,328.427582 176.198227,327.293823 172.680008,325.280365 
	C138.802963,305.892792 104.967033,286.432068 71.233498,266.796143 
	C65.012566,263.175018 59.304047,258.673523 53.519325,253.982605 
	C54.135159,245.901260 54.504608,238.409180 55.070358,230.931961 
	C55.636520,223.449265 56.398857,215.981400 57.075203,208.507034 
	C57.809143,208.542175 58.543083,208.577332 59.277023,208.612488 
	C59.277023,211.605011 58.888454,214.663422 59.381561,217.572357 
	C59.921589,220.758072 58.514221,225.330719 64.016243,226.463562 
	C64.103455,232.084122 63.894310,237.257385 64.215179,242.397568 
	C64.311653,243.942932 65.514290,246.027374 66.833588,246.799042 
	C97.346268,264.646210 127.935349,282.362885 158.534958,300.061096 
	C165.782776,304.253082 173.119568,308.291321 180.811050,312.623077 
	C180.909348,311.140747 180.989243,310.497711 180.989349,309.854645 
	C180.995407,268.548370 180.941086,227.241882 181.090317,185.936157 
	C181.103226,182.361740 179.284744,181.094986 176.714676,179.646561 
	C140.782501,159.396072 104.889290,139.076431 68.958694,118.823120 
	C67.446815,117.970917 65.663315,117.600578 64.005356,116.651268 
	C63.621288,115.671028 63.238224,115.045273 62.855156,114.419510 
	C61.928043,115.457436 60.670788,116.351692 60.143406,117.563568 
	C59.086044,119.993286 58.427601,122.596603 57.503162,125.439919 
	C51.680134,120.894363 51.679127,117.847168 56.094273,113.625031 
	C58.702023,111.131271 60.745125,108.047050 63.181217,105.057724 
	C59.543476,106.345581 56.682255,107.358528 54.752995,108.041534 
	C53.443150,104.244453 52.609947,101.829117 51.776749,99.413773 
	C52.259487,98.353615 52.742222,97.293465 53.887909,96.084084 
	C57.113239,94.996368 60.623974,95.029434 59.894646,90.718704 
	C67.868675,86.149918 75.842705,81.581131 84.524773,76.997726 
	C87.061401,77.282555 89.597626,78.452248 90.551781,77.676361 
	C91.963554,76.528366 92.252007,73.998962 93.018738,72.057724 
	C95.036453,70.814758 97.054176,69.571785 99.608810,68.661217 
	C105.112602,72.962021 104.800865,65.460106 107.893585,65.384262 
	C111.945396,70.006165 113.904922,69.873543 114.895851,67.038330 
	C113.556702,64.663086 112.722992,63.184330 111.889267,61.705582 
	C113.481049,60.717102 115.072838,59.728622 117.350586,58.881088 
	C123.022835,64.820976 123.140900,64.867271 127.065315,63.095345 
	C126.672859,59.854313 126.309731,56.855476 125.946594,53.856640 
M84.298607,81.029724 
	C83.465553,82.330124 82.632507,83.630524 81.799454,84.930931 
	C86.698158,83.162773 86.698158,83.162773 84.298607,81.029724 
M297.404266,121.197876 
	C297.790161,121.202217 298.176056,121.206566 298.561951,121.210915 
	C298.563568,121.050735 298.576019,120.751358 298.565247,120.750519 
	C298.181213,120.720650 297.795013,120.718689 297.404266,121.197876 
M237.484406,294.581268 
	C237.484406,294.581268 237.423859,294.477448 237.484406,294.581268 
z"/>
<path fill="#F5F7F9" opacity="1.000000" stroke="none" 
	d="
M310.004883,114.001022 
	C305.905334,112.476662 303.460663,109.619324 303.120392,104.589287 
	C304.297821,103.267487 305.286194,102.575615 306.514923,101.715515 
	C305.310486,101.124474 304.597961,100.804878 303.912994,100.434410 
	C266.578552,80.242157 229.236588,60.063801 191.930115,39.820023 
	C188.399628,37.904255 185.329208,37.766159 181.661484,39.806583 
	C167.898254,47.463360 153.971176,54.825623 140.043930,61.946655 
	C138.675354,59.423298 137.688766,59.615204 136.999390,61.999428 
	C132.231476,61.076977 128.966827,58.433037 127.271538,53.457878 
	C140.708801,45.671047 154.387390,38.141861 168.559479,30.823849 
	C169.465256,31.185234 169.877563,31.335449 170.289871,31.485664 
	C170.156662,30.974648 170.023453,30.463629 169.890244,29.952610 
	C179.742371,22.875418 189.540115,21.403946 200.834045,27.698027 
	C236.306000,47.466476 272.105103,66.647682 307.761200,86.086227 
	C311.170258,87.944717 314.465332,90.012245 317.973999,92.652359 
	C318.797913,93.866020 319.461121,94.410049 320.124359,94.954086 
	C320.754608,95.716682 321.384888,96.479271 322.017761,97.937500 
	C322.716400,99.755219 323.412506,100.877304 324.108612,101.999390 
	C324.430878,104.086105 325.029419,106.172264 325.033630,108.259628 
	C325.090485,136.536560 325.064850,164.813660 324.549957,193.559601 
	C320.899017,196.713470 321.128448,198.514603 324.801483,200.003906 
	C324.891083,214.033279 324.980682,228.062653 324.664429,242.588806 
	C323.972473,243.406586 323.686432,243.727600 323.400391,244.048615 
	C323.876190,244.366531 324.352020,244.684433 324.827820,245.002335 
	C324.817352,251.839706 321.433228,256.671661 315.420410,259.933716 
	C314.319519,258.951111 313.608307,258.207397 312.897064,257.463715 
	C311.968903,259.407898 311.040771,261.352051 310.112640,263.296234 
	C309.301208,263.896332 308.489746,264.496399 307.355957,264.747559 
	C307.033600,262.675018 307.033600,260.951385 307.033600,258.651733 
	C304.326172,260.190704 302.036011,261.431427 299.814209,262.784363 
	C298.875000,263.356293 298.079712,264.164520 296.573944,265.390533 
	C298.609558,266.557281 300.109955,267.417267 301.610352,268.277283 
	C299.752319,269.464325 297.894287,270.651367 295.584564,271.486572 
	C293.937866,270.616699 292.742889,270.098694 291.547882,269.580688 
	C292.049683,270.762878 292.551483,271.945038 293.053314,273.127228 
	C291.627777,274.082855 290.202240,275.038483 288.161621,275.988586 
	C287.358276,275.958893 287.170044,275.934662 286.981781,275.910431 
	C286.513428,274.985260 286.027374,273.248352 285.579407,273.258118 
	C279.945068,273.380981 279.583405,269.263519 279.078308,264.734131 
	C279.860168,263.831726 280.487457,263.529816 281.452118,263.418762 
	C282.531128,262.903290 283.272736,262.196930 284.311157,261.280640 
	C289.020935,258.587219 293.433929,256.103729 298.039612,253.933578 
	C300.539612,255.079056 302.846893,255.911224 305.154205,256.743378 
	C305.325928,256.287109 305.497620,255.830841 305.669342,255.374573 
	C304.752502,253.849564 303.835663,252.324554 303.108093,250.516815 
	C304.150360,249.719040 304.952179,249.076233 305.864990,248.710251 
	C310.693848,246.774139 312.250916,243.624878 312.207520,238.124512 
	C311.885864,197.384109 312.033020,156.640030 311.981384,115.586777 
	C311.288239,114.851303 310.646576,114.426163 310.004883,114.001022 
M173.715729,34.110226 
	C173.525848,33.574543 173.335953,33.038864 173.146072,32.503178 
	C172.870743,32.628403 172.595428,32.753628 172.320099,32.878849 
	C172.641800,33.430267 172.963501,33.981689 173.715729,34.110226 
M138.581070,58.516144 
	C138.581070,58.516144 138.477615,58.576252 138.581070,58.516144 
z"/>
<path fill="#F5F7FA" opacity="1.000000" stroke="none" 
	d="
M63.923077,226.003586 
	C58.514221,225.330719 59.921589,220.758072 59.381561,217.572357 
	C58.888454,214.663422 59.277023,211.605011 59.277023,208.612488 
	C58.543083,208.577332 57.809143,208.542175 57.075203,208.507034 
	C56.398857,215.981400 55.636520,223.449265 55.070358,230.931961 
	C54.504608,238.409180 54.135159,245.901260 53.442680,253.657440 
	C52.076778,250.397369 49.982674,246.871475 49.965202,243.335312 
	C49.741013,197.964310 49.792713,152.591827 49.869198,107.219872 
	C49.873253,104.813461 50.722546,102.408485 51.477547,99.708305 
	C52.609947,101.829117 53.443150,104.244453 54.752995,108.041534 
	C56.682255,107.358528 59.543476,106.345581 63.181217,105.057724 
	C60.745125,108.047050 58.702023,111.131271 56.094273,113.625031 
	C51.679127,117.847168 51.680134,120.894363 57.503162,125.439919 
	C58.427601,122.596603 59.086044,119.993286 60.143406,117.563568 
	C60.670788,116.351692 61.928043,115.457436 62.855156,114.419510 
	C63.238224,115.045273 63.621288,115.671028 64.071548,117.115906 
	C64.137100,125.904182 64.149406,133.873367 64.131294,141.842499 
	C64.067528,169.896210 63.993320,197.949890 63.923077,226.003586 
z"/>
<path fill="#F5F7FA" opacity="1.000000" stroke="none" 
	d="
M111.525658,61.752541 
	C112.722992,63.184330 113.556702,64.663086 114.895851,67.038330 
	C113.904922,69.873543 111.945396,70.006165 107.893585,65.384262 
	C104.800865,65.460106 105.112602,72.962021 99.975487,68.621208 
	C103.590843,66.099030 107.376442,63.949268 111.525658,61.752541 
z"/>
<path fill="#F5F7FA" opacity="1.000000" stroke="none" 
	d="
M125.596481,53.917564 
	C126.309731,56.855476 126.672859,59.854313 127.065315,63.095345 
	C123.140900,64.867271 123.022835,64.820976 117.663086,58.855900 
	C119.941879,57.119335 122.594124,55.548912 125.596481,53.917564 
z"/>
<path fill="#FAFAFA" opacity="1.000000" stroke="none" 
	d="
M301.914978,268.188416 
	C300.109955,267.417267 298.609558,266.557281 296.573944,265.390533 
	C298.079712,264.164520 298.875000,263.356293 299.814209,262.784363 
	C302.036011,261.431427 304.326172,260.190704 307.033600,258.651733 
	C307.033600,260.951385 307.033600,262.675018 307.051086,264.797852 
	C305.452240,266.164612 303.835907,267.132111 301.914978,268.188416 
z"/>
<path fill="#F5F7FA" opacity="1.000000" stroke="none" 
	d="
M92.669052,72.100220 
	C92.252007,73.998962 91.963554,76.528366 90.551781,77.676361 
	C89.597626,78.452248 87.061401,77.282555 84.842201,76.908264 
	C87.074181,75.269859 89.696777,73.706291 92.669052,72.100220 
z"/>
<path fill="#F2F4F7" opacity="1.000000" stroke="none" 
	d="
M232.392853,308.304840 
	C232.370560,303.340729 234.472855,301.936676 239.703613,303.586121 
	C237.545242,305.313629 235.151993,306.802734 232.392853,308.304840 
z"/>
<path fill="#F2F4F7" opacity="1.000000" stroke="none" 
	d="
M244.306183,301.557068 
	C245.347519,297.241638 248.775742,296.085632 253.249146,295.976135 
	C250.629135,297.811584 247.629349,299.644745 244.306183,301.557068 
z"/>
<path fill="#FAFAFA" opacity="1.000000" stroke="none" 
	d="
M310.436523,263.220764 
	C311.040771,261.352051 311.968903,259.407898 312.897064,257.463715 
	C313.608307,258.207397 314.319519,258.951111 315.088409,260.056946 
	C313.684174,261.327850 312.222321,262.236542 310.436523,263.220764 
z"/>
<path fill="#F2F4F7" opacity="1.000000" stroke="none" 
	d="
M324.934967,199.589752 
	C321.128448,198.514603 320.899017,196.713470 324.420959,194.012238 
	C324.890533,195.722504 324.979492,197.449051 324.934967,199.589752 
z"/>
<path fill="#F5F7FA" opacity="1.000000" stroke="none" 
	d="
M59.540657,90.737640 
	C60.623974,95.029434 57.113239,94.996368 54.161194,95.965187 
	C55.576576,94.249199 57.381622,92.502892 59.540657,90.737640 
z"/>
<path fill="#FAFAFA" opacity="1.000000" stroke="none" 
	d="
M293.322021,273.114136 
	C292.551483,271.945038 292.049683,270.762878 291.547882,269.580688 
	C292.742889,270.098694 293.937866,270.616699 295.215698,271.548401 
	C294.729248,272.341736 294.160004,272.721375 293.322021,273.114136 
z"/>
<path fill="#F2F4F7" opacity="1.000000" stroke="none" 
	d="
M184.304413,330.139587 
	C185.825745,329.777313 187.643555,329.585083 189.714752,329.652802 
	C188.179062,330.045013 186.389984,330.177338 184.304413,330.139587 
z"/>
<path fill="#F2F4F7" opacity="1.000000" stroke="none" 
	d="
M211.540680,319.499115 
	C210.512833,316.382782 211.955368,315.909424 215.004547,317.076233 
	C214.219803,317.883636 213.043259,318.624298 211.540680,319.499115 
z"/>
<path fill="#F2F4F7" opacity="1.000000" stroke="none" 
	d="
M226.507858,311.475769 
	C226.497589,310.456879 226.806107,309.371613 227.114624,308.286346 
	C227.703598,308.631378 228.292572,308.976410 228.949036,309.681641 
	C228.286545,310.497711 227.556595,310.953522 226.507858,311.475769 
z"/>
<path fill="#F2F4F7" opacity="1.000000" stroke="none" 
	d="
M286.654724,275.804138 
	C287.170044,275.934662 287.358276,275.958893 287.829651,276.012939 
	C286.997040,276.809235 285.881317,277.575684 284.428955,278.427185 
	C284.837433,277.574097 285.582550,276.635956 286.654724,275.804138 
z"/>
<path fill="#F2F4F7" opacity="1.000000" stroke="none" 
	d="
M324.095947,101.656937 
	C323.412506,100.877304 322.716400,99.755219 322.039001,98.241333 
	C322.732849,99.004509 323.408051,100.159492 324.095947,101.656937 
z"/>
<path fill="#F2F4F7" opacity="1.000000" stroke="none" 
	d="
M198.305893,326.914917 
	C198.833237,326.304901 199.688904,325.678894 200.914215,325.081604 
	C200.400650,325.706482 199.517441,326.302704 198.305893,326.914917 
z"/>
<path fill="#F2F4F7" opacity="1.000000" stroke="none" 
	d="
M320.077087,94.629501 
	C319.461121,94.410049 318.797913,93.866020 318.139343,92.958221 
	C318.772644,93.164619 319.401245,93.734772 320.077087,94.629501 
z"/>
<path fill="#F2F4F7" opacity="1.000000" stroke="none" 
	d="
M194.279312,328.819489 
	C194.533157,328.346527 195.074890,327.903168 195.785645,327.663513 
	C195.492188,328.194489 195.029694,328.521790 194.279312,328.819489 
z"/>
<path fill="#F5F7FA" opacity="1.000000" stroke="none" 
	d="
M169.667511,29.931660 
	C170.023453,30.463629 170.156662,30.974648 170.289871,31.485664 
	C169.877563,31.335449 169.465256,31.185234 168.926315,30.760168 
	C168.911270,30.177662 169.126297,29.986126 169.667511,29.931660 
z"/>
<path fill="#F2F4F7" opacity="1.000000" stroke="none" 
	d="
M324.954956,244.675964 
	C324.352020,244.684433 323.876190,244.366531 323.400391,244.048615 
	C323.686432,243.727600 323.972473,243.406586 324.536224,243.041702 
	C324.903320,243.448410 324.992737,243.899002 324.954956,244.675964 
z"/>
<path fill="#010101" opacity="1.000000" stroke="none" 
	d="
M281.114746,263.227905 
	C280.487457,263.529816 279.860168,263.831726 279.031708,264.308990 
	C267.336823,271.120941 255.843094,277.757538 243.814819,284.710846 
	C238.471573,287.880798 233.662872,290.733978 228.854187,293.587158 
	C221.992355,297.377319 215.130508,301.167419 207.694611,305.272644 
	C205.942657,306.336334 204.764740,307.084930 203.586823,307.833496 
	C203.586823,307.833496 203.207581,307.786774 202.772812,307.985352 
	C201.050522,309.067047 199.763016,309.950195 198.475494,310.833313 
	C197.541672,311.153168 196.607834,311.473053 194.841232,312.078156 
	C194.841232,305.111816 194.840683,298.409302 194.841339,291.706787 
	C194.844711,257.000610 195.025986,222.292831 194.712540,187.589523 
	C194.644150,180.018082 201.043747,179.529831 204.830246,176.164963 
	C206.343430,174.820236 208.578339,174.287689 211.015076,173.102203 
	C212.008621,172.469879 212.471832,172.120773 212.935028,171.771667 
	C219.161072,168.365189 225.387100,164.958710 232.119171,161.230942 
	C233.442078,160.282471 234.258972,159.655319 235.075867,159.028168 
	C237.926773,157.540024 240.777679,156.051880 244.127045,154.225220 
	C245.497681,153.292664 246.369858,152.698608 247.242035,152.104553 
	C252.355392,149.299438 257.468750,146.494308 263.179504,143.415848 
	C264.722076,142.496918 265.667267,141.851318 266.612457,141.205719 
	C266.612457,141.205719 266.862976,141.239868 267.239136,141.139557 
	C268.060852,140.638397 268.506378,140.237564 268.951935,139.836746 
	C271.156281,138.699539 273.360596,137.562347 276.111450,136.131119 
	C279.141327,134.239624 281.624725,132.642151 284.108124,131.044678 
	C292.589386,126.225464 301.070648,121.406250 310.128723,116.313271 
	C311.147949,115.992043 311.590393,115.944572 312.032837,115.897110 
	C312.033020,156.640030 311.885864,197.384109 312.207520,238.124512 
	C312.250916,243.624878 310.693848,246.774139 305.864990,248.710251 
	C304.952179,249.076233 304.150360,249.719040 302.772430,250.520279 
	C300.780640,251.744370 299.313782,252.682312 297.846893,253.620239 
	C293.433929,256.103729 289.020935,258.587219 284.023865,261.318481 
	C282.664734,262.120117 281.889740,262.674011 281.114746,263.227905 
z"/>
<path fill="#010101" opacity="1.000000" stroke="none" 
	d="
M64.016243,226.463562 
	C63.993320,197.949890 64.067528,169.896210 64.131294,141.842499 
	C64.149406,133.873367 64.137100,125.904182 64.072556,117.470383 
	C65.663315,117.600578 67.446815,117.970917 68.958694,118.823120 
	C104.889290,139.076431 140.782501,159.396072 176.714676,179.646561 
	C179.284744,181.094986 181.103226,182.361740 181.090317,185.936157 
	C180.941086,227.241882 180.995407,268.548370 180.989349,309.854645 
	C180.989243,310.497711 180.909348,311.140747 180.811050,312.623077 
	C173.119568,308.291321 165.782776,304.253082 158.534958,300.061096 
	C127.935349,282.362885 97.346268,264.646210 66.833588,246.799042 
	C65.514290,246.027374 64.311653,243.942932 64.215179,242.397568 
	C63.894310,237.257385 64.103455,232.084122 64.016243,226.463562 
z"/>
<path fill="#010202" opacity="1.000000" stroke="none" 
	d="
M140.105499,62.298260 
	C153.971176,54.825623 167.898254,47.463360 181.661484,39.806583 
	C185.329208,37.766159 188.399628,37.904255 191.930115,39.820023 
	C229.236588,60.063801 266.578552,80.242157 303.912994,100.434410 
	C304.597961,100.804878 305.310486,101.124474 306.514923,101.715515 
	C305.286194,102.575615 304.297821,103.267487 303.048218,104.179962 
	C301.597473,105.057442 300.407928,105.714325 298.663574,106.672440 
	C293.645142,109.608559 289.181580,112.243431 284.717987,114.878311 
	C284.218567,115.033936 283.719147,115.189545 282.737427,115.603600 
	C281.535065,116.359848 280.815063,116.857666 280.095032,117.355476 
	C278.177490,118.334511 276.259949,119.313553 273.831787,120.566040 
	C272.875366,121.216141 272.429596,121.592781 271.983826,121.969437 
	C266.413727,125.100525 260.843597,128.231613 254.777863,131.696899 
	C253.406387,132.639542 252.530548,133.247986 251.654709,133.856415 
	C249.894073,134.735977 248.133423,135.615540 245.845139,136.808578 
	C243.959000,137.985504 242.600479,138.848953 241.241974,139.712387 
	C237.902893,141.454483 234.563828,143.196594 230.661499,145.242493 
	C229.113556,146.212540 228.128860,146.878784 227.144180,147.545044 
	C216.744354,153.333221 206.187698,158.862610 196.015274,165.026123 
	C191.393372,167.826538 187.739090,167.664551 183.161224,165.137177 
	C154.744064,149.448669 126.202202,133.986084 97.707069,118.438721 
	C88.392204,113.356407 79.093292,108.244843 69.450638,102.724876 
	C69.912262,101.600143 70.710342,100.897186 71.789474,100.150009 
	C72.667542,99.695686 73.264565,99.285576 74.171677,98.872963 
	C74.988770,98.524178 75.495773,98.177887 76.002777,97.831604 
	C81.858963,94.679497 87.715164,91.527397 94.124290,88.043320 
	C99.005440,85.225922 103.333656,82.740494 107.661880,80.255066 
	C108.698128,79.757530 109.734375,79.259987 111.267624,78.469955 
	C112.844994,77.456589 113.925369,76.735703 115.005745,76.014816 
	C121.909439,72.311134 128.813141,68.607452 136.253448,64.603836 
	C137.895203,63.635357 139.000351,62.966808 140.105499,62.298260 
M179.407944,114.898743 
	C179.839905,114.648682 180.315262,114.451935 180.697495,114.140793 
	C191.389893,105.436996 202.159836,96.825249 212.718414,87.961761 
	C217.546906,83.908440 217.838211,79.841324 214.068207,75.550011 
	C212.654938,73.941307 210.795654,72.728279 209.165710,71.305077 
	C207.167664,69.560448 205.482407,69.155754 203.163467,71.253082 
	C194.056137,79.489967 184.959488,87.761887 175.472214,95.549774 
	C162.499451,106.198837 166.303177,105.931030 152.467026,96.109779 
	C141.855225,88.577271 141.934113,88.462029 134.196930,99.094925 
	C134.020279,99.337677 134.024170,99.711807 133.748810,100.784355 
	C141.689514,108.229759 149.803024,116.050362 158.241180,123.503403 
	C159.414581,124.539833 162.537567,124.482719 164.155899,123.694893 
	C169.209824,121.234619 173.975006,118.181190 179.407944,114.898743 
M233.948425,92.609467 
	C231.259003,93.911781 228.411926,94.965820 225.906067,96.557182 
	C210.945892,106.057648 196.072922,115.695328 181.142242,125.242485 
	C179.788803,126.107918 178.233994,126.658417 176.772705,127.355171 
	C179.821411,130.434998 181.151047,132.081360 182.515244,133.698578 
	C186.405075,138.309860 188.815384,138.735748 193.901169,135.606506 
	C207.084885,127.494698 220.273697,119.390694 233.410965,111.204147 
	C237.975571,108.359688 242.394836,105.282005 248.249573,101.403992 
	C242.928329,97.865631 238.781433,95.108154 233.948425,92.609467 
z"/>
<path fill="#F5F7F9" opacity="1.000000" stroke="none" 
	d="
M285.040314,115.078056 
	C289.181580,112.243431 293.645142,109.608559 298.452698,106.938980 
	C298.266052,110.192398 298.875122,114.930847 296.949615,116.443962 
	C293.696533,119.000359 288.847626,119.447624 285.040314,115.078056 
z"/>
<path fill="#F5F7FA" opacity="1.000000" stroke="none" 
	d="
M107.267670,80.100563 
	C103.333656,82.740494 99.005440,85.225922 94.335342,87.746674 
	C93.265656,83.257935 96.457901,80.643532 99.526375,78.983116 
	C101.286369,78.030746 104.380150,79.543228 107.267670,80.100563 
z"/>
<path fill="#F5F7FA" opacity="1.000000" stroke="none" 
	d="
M71.508423,100.194229 
	C70.710342,100.897186 69.912262,101.600143 69.116943,102.629700 
	C68.235451,102.084198 66.733627,101.296432 66.600540,100.321770 
	C66.353371,98.511719 66.904907,96.592598 66.046524,94.205299 
	C67.951668,92.772141 69.856812,91.338982 70.846275,90.594650 
	C72.824333,93.184944 74.341232,95.171341 75.930450,97.494675 
	C75.495773,98.177887 74.988770,98.524178 73.806442,98.613945 
	C72.299286,98.500145 71.467461,98.642860 70.635628,98.785576 
	C70.926559,99.255127 71.217491,99.724678 71.508423,100.194229 
z"/>
<path fill="#F2F4F7" opacity="1.000000" stroke="none" 
	d="
M228.984909,293.911804 
	C233.662872,290.733978 238.471573,287.880798 243.634903,285.000000 
	C243.968658,291.381653 243.559418,291.663086 236.820450,292.237366 
	C235.346497,292.362976 234.037552,293.864563 232.528839,294.337921 
	C231.502762,294.659912 230.260971,294.294464 228.984909,293.911804 
z"/>
<path fill="#F2F4F7" opacity="1.000000" stroke="none" 
	d="
M283.771881,130.901581 
	C281.624725,132.642151 279.141327,134.239624 276.310486,135.859619 
	C277.256775,132.428314 279.675964,130.615875 283.771881,130.901581 
z"/>
<path fill="#F5F7FA" opacity="1.000000" stroke="none" 
	d="
M84.664658,81.031265 
	C86.698158,83.162773 86.698158,83.162773 81.799454,84.930931 
	C82.632507,83.630524 83.465553,82.330124 84.664658,81.031265 
z"/>
<path fill="#F5F7FA" opacity="1.000000" stroke="none" 
	d="
M140.043930,61.946655 
	C139.000351,62.966808 137.895203,63.635357 136.461014,64.338303 
	C136.338364,63.777321 136.544754,63.181946 136.875275,62.292999 
	C137.688766,59.615204 138.675354,59.423298 140.043930,61.946655 
z"/>
<path fill="#F2F4F7" opacity="1.000000" stroke="none" 
	d="
M251.979370,134.000214 
	C252.530548,133.247986 253.406387,132.639542 254.611725,132.003876 
	C255.339661,133.011398 255.738098,134.046143 256.683014,136.500000 
	C254.290359,135.212677 253.297195,134.678329 251.979370,134.000214 
z"/>
<path fill="#F2F4F7" opacity="1.000000" stroke="none" 
	d="
M246.931702,151.959503 
	C246.369858,152.698608 245.497681,153.292664 244.306732,153.928528 
	C243.670319,152.943787 243.352661,151.917221 242.685486,149.761185 
	C244.615753,150.768173 245.618546,151.291321 246.931702,151.959503 
z"/>
<path fill="#F5F7FA" opacity="1.000000" stroke="none" 
	d="
M114.760559,75.741516 
	C113.925369,76.735703 112.844994,77.456589 111.435394,78.231430 
	C110.867020,75.681702 111.661049,74.328323 114.760559,75.741516 
z"/>
<path fill="#F2F4F7" opacity="1.000000" stroke="none" 
	d="
M241.677795,139.790161 
	C242.600479,138.848953 243.959000,137.985504 245.660187,137.084381 
	C246.175583,140.012405 244.307281,140.164444 241.677795,139.790161 
z"/>
<path fill="#F2F4F7" opacity="1.000000" stroke="none" 
	d="
M198.893127,310.879028 
	C199.763016,309.950195 201.050522,309.067047 202.672241,308.147766 
	C201.774536,309.049347 200.542648,309.987030 198.893127,310.879028 
z"/>
<path fill="#F2F4F7" opacity="1.000000" stroke="none" 
	d="
M203.957855,307.987305 
	C204.764740,307.084930 205.942657,306.336334 207.471207,305.533386 
	C208.214432,308.409271 207.346664,309.685791 203.957855,307.987305 
z"/>
<path fill="#F2F4F7" opacity="1.000000" stroke="none" 
	d="
M266.249756,141.139221 
	C265.667267,141.851318 264.722076,142.496918 263.430054,143.181015 
	C262.647919,140.714722 263.859741,140.361176 266.249756,141.139221 
z"/>
<path fill="#F2F4F7" opacity="1.000000" stroke="none" 
	d="
M227.588074,147.666534 
	C228.128860,146.878784 229.113556,146.212540 230.453186,145.494659 
	C229.882751,146.224701 228.957367,147.006363 227.588074,147.666534 
z"/>
<path fill="#F2F4F7" opacity="1.000000" stroke="none" 
	d="
M234.719086,159.022247 
	C234.258972,159.655319 233.442078,160.282471 232.306824,160.937897 
	C232.779724,160.316208 233.571014,159.666260 234.719086,159.022247 
z"/>
<path fill="#F2F4F7" opacity="1.000000" stroke="none" 
	d="
M272.166992,122.202065 
	C272.429596,121.592781 272.875366,121.216141 273.623901,120.822220 
	C273.401154,121.348198 272.875671,121.891449 272.166992,122.202065 
z"/>
<path fill="#F2F4F7" opacity="1.000000" stroke="none" 
	d="
M268.762024,139.634277 
	C268.506378,140.237564 268.060852,140.638397 267.306183,141.032349 
	C267.522095,140.494263 268.047089,139.963043 268.762024,139.634277 
z"/>
<path fill="#F2F4F7" opacity="1.000000" stroke="none" 
	d="
M212.750717,171.582245 
	C212.471832,172.120773 212.008621,172.469879 211.248718,172.827927 
	C211.490158,172.355515 212.028275,171.874161 212.750717,171.582245 
z"/>
<path fill="#F2F4F7" opacity="1.000000" stroke="none" 
	d="
M311.981384,115.586777 
	C311.590393,115.944572 311.147949,115.992043 310.353271,116.059914 
	C310.000305,115.618240 309.999603,115.156158 310.001892,114.347549 
	C310.646576,114.426163 311.288239,114.851303 311.981384,115.586777 
z"/>
<path fill="#F2F4F7" opacity="1.000000" stroke="none" 
	d="
M280.484161,117.509430 
	C280.815063,116.857666 281.535065,116.359848 282.585999,115.821709 
	C282.235657,116.408714 281.554474,117.036041 280.484161,117.509430 
z"/>
<path fill="#F5F7F9" opacity="1.000000" stroke="none" 
	d="
M297.406677,120.955353 
	C297.795013,120.718689 298.181213,120.720650 298.565247,120.750519 
	C298.576019,120.751358 298.563568,121.050735 298.561951,121.210915 
	C298.176056,121.206566 297.790161,121.202217 297.406677,120.955353 
z"/>
<path fill="#F2F4F7" opacity="1.000000" stroke="none" 
	d="
M237.454132,294.529358 
	C237.423859,294.477448 237.484406,294.581268 237.454132,294.529358 
z"/>
<path fill="#FAFAFA" opacity="1.000000" stroke="none" 
	d="
M298.039612,253.933563 
	C299.313782,252.682312 300.780640,251.744370 302.583191,250.802979 
	C303.835663,252.324554 304.752502,253.849564 305.669342,255.374573 
	C305.497620,255.830841 305.325928,256.287109 305.154205,256.743378 
	C302.846893,255.911224 300.539612,255.079056 298.039612,253.933563 
z"/>
<path fill="#F5F7FA" opacity="1.000000" stroke="none" 
	d="
M173.500458,34.321667 
	C172.963501,33.981689 172.641800,33.430267 172.320099,32.878849 
	C172.595428,32.753628 172.870743,32.628403 173.146072,32.503181 
	C173.335953,33.038864 173.525848,33.574543 173.500458,34.321667 
z"/>
<path fill="#F2F4F7" opacity="1.000000" stroke="none" 
	d="
M281.452118,263.418762 
	C281.889740,262.674011 282.664734,262.120117 283.727051,261.528412 
	C283.272736,262.196930 282.531128,262.903290 281.452118,263.418762 
z"/>
<path fill="#F5F7FA" opacity="1.000000" stroke="none" 
	d="
M138.529343,58.546196 
	C138.477615,58.576252 138.581070,58.516144 138.529343,58.546196 
z"/>
<path fill="#55CFDA" opacity="1.000000" stroke="none" 
	d="
M179.130035,115.128212 
	C173.975006,118.181190 169.209824,121.234619 164.155899,123.694893 
	C162.537567,124.482719 159.414581,124.539833 158.241180,123.503403 
	C149.803024,116.050362 141.689514,108.229759 133.748810,100.784355 
	C134.024170,99.711807 134.020279,99.337677 134.196930,99.094925 
	C141.934113,88.462029 141.855225,88.577271 152.467026,96.109779 
	C166.303177,105.931030 162.499451,106.198837 175.472214,95.549774 
	C184.959488,87.761887 194.056137,79.489967 203.163467,71.253082 
	C205.482407,69.155754 207.167664,69.560448 209.165710,71.305077 
	C210.795654,72.728279 212.654938,73.941307 214.068207,75.550011 
	C217.838211,79.841324 217.546906,83.908440 212.718414,87.961761 
	C202.159836,96.825249 191.389893,105.436996 180.697495,114.140793 
	C180.315262,114.451935 179.839905,114.648682 179.130035,115.128212 
z"/>
<path fill="#55CED9" opacity="1.000000" stroke="none" 
	d="
M234.291473,92.480072 
	C238.781433,95.108154 242.928329,97.865631 248.249573,101.403992 
	C242.394836,105.282005 237.975571,108.359688 233.410965,111.204147 
	C220.273697,119.390694 207.084885,127.494698 193.901169,135.606506 
	C188.815384,138.735748 186.405075,138.309860 182.515244,133.698578 
	C181.151047,132.081360 179.821411,130.434998 176.772705,127.355171 
	C178.233994,126.658417 179.788803,126.107918 181.142242,125.242485 
	C196.072922,115.695328 210.945892,106.057648 225.906067,96.557182 
	C228.411926,94.965820 231.259003,93.911781 234.291473,92.480072 
z"/>
<path fill="#FAFAFA" opacity="1.000000" stroke="none" 
	d="
M71.789474,100.150009 
	C71.217491,99.724678 70.926559,99.255127 70.635628,98.785576 
	C71.467461,98.642860 72.299286,98.500145 73.496353,98.616447 
	C73.264565,99.285576 72.667542,99.695686 71.789474,100.150009 
z"/>
</svg>