<?xml version="1.0" encoding="UTF-8"?>
<svg version="1.1" xmlns="http://www.w3.org/2000/svg" width="347" height="361">
<path d="M0 0 C2.09729983 1.1149139 4.17559508 2.25694751 6.24609375 3.42089844 C8.62032507 4.75511769 11.01097771 6.05552902 13.40625 7.3515625 C19.78807798 10.81784704 26.14072461 14.33543957 32.44921875 17.93359375 C41.66799661 23.18775732 51.0248941 28.13529435 60.45776367 32.99560547 C67.19099165 36.46718286 73.86614171 40.02950161 80.5 43.6875 C80.5 44.3475 80.5 45.0075 80.5 45.6875 C81.38067139 45.96368164 82.26134277 46.23986328 83.16870117 46.52441406 C88.31335763 48.32061365 92.99639792 50.90758091 97.8125 53.4375 C98.80701172 53.95054688 99.80152344 54.46359375 100.82617188 54.9921875 C120.7016653 65.38016699 120.7016653 65.38016699 124.86342239 75.37184143 C126.29962676 80.5962774 125.91328036 86.12140822 125.88818359 91.49804688 C125.89225337 92.896575 125.89759752 94.29509991 125.90411377 95.69361877 C125.91774506 99.47669226 125.91250617 103.25951923 125.90297651 107.04259682 C125.89535812 111.00980904 125.90243156 114.97700077 125.90713501 118.94421387 C125.91258623 125.60526298 125.90541762 132.26621217 125.89111328 138.92724609 C125.87478794 146.61799042 125.8800769 154.30849612 125.8965925 161.99923468 C125.91022546 168.61346393 125.91211819 175.22762153 125.90427649 181.84186029 C125.8996099 185.78738978 125.89894709 189.73280726 125.90888596 193.67832947 C125.91757978 197.38846391 125.91149 201.09829198 125.89420319 204.80839348 C125.88837249 206.81204182 125.89723324 208.8157162 125.90658569 210.8193512 C125.83811288 220.55451417 124.50555759 226.49179156 117.5 233.6875 C115.2489519 235.15520599 113.12325585 236.40533371 110.75 237.625 C103.48393865 241.52988426 96.42300761 245.71498433 89.375 250 C80.36739573 255.45369495 71.2541991 260.62988138 61.97949219 265.61376953 C56.04449636 268.81230291 50.30489144 272.19316091 44.59375 275.77734375 C31.80603681 283.67278788 18.38587741 290.49665804 5.03271484 297.37060547 C2.88904073 298.48521682 0.76305053 299.62376095 -1.35546875 300.78515625 C-2.37253906 301.33042969 -3.38960937 301.87570312 -4.4375 302.4375 C-5.25089844 302.88609375 -6.06429687 303.3346875 -6.90234375 303.796875 C-11.97990634 305.5377536 -16.05783468 305.22445919 -20.97265625 303.39453125 C-22.17857795 302.78098034 -23.37486128 302.14823309 -24.5625 301.5 C-25.22588379 301.15340332 -25.88926758 300.80680664 -26.57275391 300.44970703 C-39.29896878 293.71941417 -51.81651948 286.54320775 -64.14208984 279.10742188 C-67.70442506 276.96220117 -71.28894288 274.85524746 -74.875 272.75 C-75.60541504 272.32106445 -76.33583008 271.89212891 -77.08837891 271.45019531 C-78.54965571 270.59235685 -80.0110771 269.73476462 -81.47265625 268.87744141 C-83.27450627 267.81985265 -85.07486103 266.75971729 -86.875 265.69921875 C-92.39920332 262.4551879 -97.9685233 259.32399455 -103.6015625 256.2734375 C-113.21081924 251.0155423 -122.64585652 245.46520669 -132.0078125 239.78125 C-134.15058642 238.48415441 -136.29906447 237.245198 -138.4921875 236.03125 C-144.95296713 232.42701685 -149.07950108 228.94899677 -151.5 221.6875 C-151.60159831 219.73958799 -151.64368014 217.78837784 -151.65390015 215.83784485 C-151.66250061 214.61681564 -151.67110107 213.39578644 -151.67996216 212.13775635 C-151.68439728 210.78234906 -151.68869565 209.42694132 -151.69287109 208.0715332 C-151.70077387 206.64566346 -151.70904293 205.21979571 -151.71765137 203.79393005 C-151.74385426 199.10873317 -151.75917865 194.42352743 -151.7734375 189.73828125 C-151.77879815 188.12412193 -151.78417567 186.50996266 -151.78956985 184.89580345 C-151.81119727 178.17970841 -151.8299327 171.46361575 -151.84119225 164.7474947 C-151.85742313 155.12997285 -151.89058123 145.51285553 -151.94759309 135.89548618 C-151.98633183 129.1293269 -152.00582965 122.36327565 -152.01111281 115.59700841 C-152.01476131 111.55790476 -152.02672833 107.51923274 -152.05921555 103.4802494 C-152.08936541 99.67733126 -152.09558389 95.87510433 -152.08383179 92.07209206 C-152.08361162 90.68056151 -152.09187004 89.28899825 -152.10948563 87.89757919 C-152.20546121 79.87644944 -151.94633536 73.88192085 -146.5 67.6875 C-141.64294254 62.71695989 -135.58172303 59.88194357 -129.45611572 56.70169067 C-126.29462683 55.05856159 -123.14659221 53.39019165 -120 51.71875 C-119.36192413 51.37989273 -118.72384827 51.04103546 -118.06643677 50.69190979 C-112.15779186 47.5367087 -106.38298053 44.17181526 -100.625 40.75 C-90.30645537 34.63287703 -79.79205007 28.94631179 -69.17626953 23.36743164 C-61.96044981 19.57036069 -54.84131743 15.64178224 -47.77636719 11.57080078 C-43.19060695 8.93484292 -38.56993134 6.36528877 -33.9375 3.8125 C-32.66422852 3.10480469 -32.66422852 3.10480469 -31.36523438 2.3828125 C-20.35759829 -3.68561021 -11.82407299 -6.06593058 0 0 Z M-28.375 18.625 C-30.44295226 19.83254311 -32.51196999 21.03826337 -34.58203125 22.2421875 C-36.09917725 23.13115723 -36.09917725 23.13115723 -37.64697266 24.03808594 C-41.40208675 26.20902132 -45.21493918 28.24885451 -49.0625 30.25 C-65.62222483 38.91686582 -81.95282282 48.00311525 -98.20898438 57.22412109 C-120.89483315 70.08976318 -120.89483315 70.08976318 -131.5 75.6875 C-127.96831198 78.68466447 -124.4694684 80.8921685 -120.3359375 82.97265625 C-119.12905517 83.58615442 -117.92218725 84.19968092 -116.71533203 84.81323242 C-115.77539398 85.28700821 -115.77539398 85.28700821 -114.81646729 85.77035522 C-105.61846147 90.41157602 -96.48890075 95.11650599 -87.625 100.375 C-80.94329948 104.33563609 -74.15623078 108.00770345 -67.25 111.5625 C-59.31581134 115.64656679 -51.50044145 119.88962304 -43.75 124.3125 C-40.91951894 125.91891116 -38.08805279 127.52356301 -35.25585938 129.12695312 C-33.42256218 130.16508527 -31.59052274 131.20544179 -29.75976562 132.24804688 C-27.18358731 133.7059424 -24.59449573 135.13751997 -22 136.5625 C-21.24106445 136.99771973 -20.48212891 137.43293945 -19.70019531 137.88134766 C-16.3677377 139.6841157 -14.04033703 140.66048315 -10.21875 140.8515625 C-4.53963607 139.07385667 0.36919059 136.16620816 5.5 133.1875 C6.61270264 132.55328125 7.72540527 131.9190625 8.87182617 131.265625 C15.96036464 127.20943726 22.99182508 123.06523496 29.92578125 118.75 C32.90080309 116.96454187 35.97817237 115.44730846 39.09375 113.921875 C45.83054293 110.59031588 52.24894296 106.80757981 58.6875 102.9375 C59.87803316 102.22686771 61.06887347 101.51674977 62.26000977 100.80712891 C65.67575962 98.77128158 69.08813118 96.72984509 72.5 94.6875 C75.64267186 92.80712331 78.78717995 90.93003738 81.9375 89.0625 C82.93595947 88.47009521 82.93595947 88.47009521 83.95458984 87.86572266 C88.87007569 84.98165562 93.90184585 82.4209249 99.08203125 80.0390625 C101.70178418 78.57470949 103.48465341 76.89545547 105.5 74.6875 C103.73462891 73.83091797 103.73462891 73.83091797 101.93359375 72.95703125 C92.60430969 68.38500067 83.44848415 63.61053056 74.4375 58.4375 C66.08064531 53.64461891 57.63073455 49.09138435 49.0625 44.6875 C32.69886657 36.27669056 16.47536461 27.60704433 0.4934082 18.48901367 C-1.16524274 17.54487987 -2.83239766 16.61573166 -4.5 15.6875 C-5.48742187 15.11257812 -6.47484375 14.53765625 -7.4921875 13.9453125 C-15.83133601 10.45803222 -21.25354079 14.3400892 -28.375 18.625 Z M-135.5 90.6875 C-135.65399331 106.76868497 -135.80202388 122.84991207 -135.9429636 138.93121624 C-136.00854376 146.39810226 -136.07607221 153.86496116 -136.14819336 161.33178711 C-136.21105189 167.84015036 -136.27024864 174.34853487 -136.32505554 180.85697109 C-136.35420076 184.30286452 -136.38517462 187.74871955 -136.42053413 191.19455528 C-136.4599463 195.04201572 -136.49118294 198.88951899 -136.52172852 202.73706055 C-136.53467453 203.87857574 -136.54762054 205.02009094 -136.56095886 206.19619751 C-136.56799835 207.24642593 -136.57503784 208.29665436 -136.58229065 209.37870789 C-136.59058679 210.28851756 -136.59888292 211.19832724 -136.60743046 212.1357069 C-136.49651255 214.77033738 -136.17476372 217.13830863 -135.5 219.6875 C-133.88171414 221.17154721 -133.88171414 221.17154721 -131.73046875 222.16015625 C-130.93487549 222.57821533 -130.13928223 222.99627441 -129.31958008 223.42700195 C-128.01670044 224.08188599 -128.01670044 224.08188599 -126.6875 224.75 C-124.83929256 225.72043692 -122.99298551 226.69450036 -121.1484375 227.671875 C-120.20323242 228.17009766 -119.25802734 228.66832031 -118.28417969 229.18164062 C-114.03846417 231.47799044 -109.92831486 233.98033559 -105.8125 236.5 C-98.2616685 241.09530839 -90.60477204 245.4630074 -82.875 249.75 C-74.88982256 254.18131816 -67.02444347 258.73703283 -59.26977539 263.55908203 C-50.32068263 269.092436 -41.12242885 274.19664825 -31.93212891 279.31591797 C-29.77120368 280.53455659 -27.64187905 281.79522654 -25.51171875 283.06640625 C-22.62977639 284.9244818 -22.62977639 284.9244818 -19.5 284.6875 C-19.38322861 268.06751465 -19.29504247 251.44766223 -19.24093914 234.82736588 C-19.21515092 227.11035708 -19.17998902 219.39360307 -19.12280273 211.67675781 C-19.07298615 204.95119424 -19.04071347 198.22581518 -19.02955753 191.50007224 C-19.02303563 187.93831529 -19.00769582 184.3770862 -18.97134972 180.81549835 C-18.93111599 176.84076501 -18.93004947 172.86654935 -18.93237305 168.89160156 C-18.91439667 167.70908813 -18.89642029 166.52657471 -18.87789917 165.30822754 C-18.74458426 159.08933825 -18.74458426 159.08933825 -21.8861084 154.01382446 C-22.74869263 153.57613739 -23.61127686 153.13845032 -24.5 152.6875 C-25.28866455 152.21715332 -26.0773291 151.74680664 -26.88989258 151.26220703 C-28.12968872 150.61034424 -28.12968872 150.61034424 -29.39453125 149.9453125 C-30.3376416 149.44378662 -31.28075195 148.94226074 -32.25244141 148.42553711 C-33.26226074 147.89323486 -34.27208008 147.36093262 -35.3125 146.8125 C-43.8556811 142.25227968 -52.28459417 137.54618778 -60.625 132.625 C-68.21920934 128.14740731 -75.86297348 123.80503194 -83.625 119.625 C-92.03680584 115.09271841 -100.28011445 110.32539291 -108.4855957 105.43066406 C-114.54606648 101.82213111 -120.64775452 98.30247931 -126.8125 94.875 C-127.57788086 94.44815918 -128.34326172 94.02131836 -129.13183594 93.58154297 C-132.15376654 91.5859045 -132.15376654 91.5859045 -135.5 90.6875 Z M105.4609375 92.43359375 C103.88892578 93.31192871 103.88892578 93.31192871 102.28515625 94.20800781 C100.59712891 95.15691895 100.59712891 95.15691895 98.875 96.125 C97.15990234 97.08744629 97.15990234 97.08744629 95.41015625 98.06933594 C87.63371912 102.44853567 79.94503892 106.94368377 72.32177734 111.58251953 C63.19871835 117.11601793 54.09084168 122.48750046 44.48828125 127.15234375 C40.44600916 129.22896196 36.58636989 131.57775002 32.7097168 133.94287109 C26.24301232 137.87784976 19.66987943 141.61845527 13.08422852 145.35009766 C11.40179645 146.30534537 9.72308654 147.2671813 8.04833984 148.23583984 C6.27433885 149.24639837 4.48110549 150.22362127 2.67431641 151.17431641 C1.7672998 151.6697998 0.8602832 152.1652832 -0.07421875 152.67578125 C-0.89881592 153.11059814 -1.72341309 153.54541504 -2.57299805 153.9934082 C-5.31303953 156.40227021 -5.10315367 158.05514942 -5.5 161.6875 C-5.63589414 165.17641837 -5.63663786 168.66111438 -5.62939453 172.15234375 C-5.63114685 173.193871 -5.63289917 174.23539825 -5.63470459 175.30848694 C-5.63910042 178.74734166 -5.63619134 182.18614477 -5.6328125 185.625 C-5.6334866 188.02669281 -5.63445751 190.42838555 -5.63571167 192.83007812 C-5.63718591 197.86703134 -5.63504434 202.90396682 -5.63037109 207.94091797 C-5.62469855 214.36496916 -5.6279388 220.78897834 -5.63394356 227.21302795 C-5.63757756 232.17702545 -5.63639718 237.14101318 -5.63381577 242.10501099 C-5.63315305 244.47144577 -5.63395176 246.83788147 -5.63629532 249.20431519 C-5.6523044 266.96831466 -5.6523044 266.96831466 -4.5 284.6875 C12.67468917 276.43666965 29.21043161 267.04370261 45.38598633 256.98413086 C51.99182154 252.91570369 58.76474437 249.17405604 65.5625 245.4375 C77.84581941 238.68497629 89.87321348 231.58379546 101.83886719 224.28051758 C105.03162172 222.36925856 108.26917959 220.53368309 111.5 218.6875 C111.5 176.1175 111.5 133.5475 111.5 89.6875 C109.39808183 89.6875 107.21952439 91.45043143 105.4609375 92.43359375 Z " fill="#ECEDEF" transform="translate(199.5,25.3125)"/>
<path d="M0 0 C3.74367073 2.02756718 6.60797118 3.93827124 8.76953125 7.671875 C9.56062747 10.99447912 9.28306652 12.99366286 8.39453125 16.296875 C6.27734375 18.75390625 6.27734375 18.75390625 3.51953125 21.109375 C3.02630371 21.53605469 2.53307617 21.96273437 2.02490234 22.40234375 C0.49468242 23.71715617 -1.05276078 25.00874291 -2.60546875 26.296875 C-3.95125 27.43189453 -3.95125 27.43189453 -5.32421875 28.58984375 C-8.05785184 30.86117125 -10.82211204 33.08678417 -13.60546875 35.296875 C-14.12399414 35.70969727 -14.64251953 36.12251953 -15.17675781 36.54785156 C-22.37449122 42.25669724 -29.70558526 47.58306022 -37.60546875 52.296875 C-38.67796875 52.956875 -39.75046875 53.616875 -40.85546875 54.296875 C-44.64213632 55.67384503 -46.69721623 55.31147846 -50.60546875 54.296875 C-53.22811426 52.36994382 -55.35227616 50.06867128 -57.54296875 47.671875 C-58.76359659 46.38869241 -59.98623831 45.10742237 -61.2109375 43.828125 C-61.79278809 43.21453125 -62.37463867 42.6009375 -62.97412109 41.96875 C-65.53144412 39.34789576 -68.30210021 37.01914969 -71.15234375 34.7265625 C-72.8298277 33.07613474 -73.66696931 31.44070214 -74.60546875 29.296875 C-73.34204387 27.81137544 -72.06945845 26.33366311 -70.79296875 24.859375 C-69.73142578 23.62380859 -69.73142578 23.62380859 -68.6484375 22.36328125 C-66.60546875 20.296875 -66.60546875 20.296875 -63.60546875 19.296875 C-61.70776367 20.39257812 -61.70776367 20.39257812 -59.5859375 22.078125 C-58.42288086 22.96951172 -58.42288086 22.96951172 -57.23632812 23.87890625 C-55.61466278 25.15186818 -53.99741497 26.43047906 -52.38476562 27.71484375 C-47.83821302 31.30352295 -47.83821302 31.30352295 -42.32421875 32.453125 C-39.20980154 31.12860274 -37.33687126 29.66238917 -34.91796875 27.296875 C-31.35898231 23.92012582 -27.7505512 20.73583515 -23.91796875 17.671875 C-20.77174405 15.13018436 -17.79109976 12.57987198 -14.98046875 9.671875 C-12.41964604 7.05564988 -9.77959268 4.59613581 -6.98046875 2.234375 C-6.26632813 1.62464844 -5.5521875 1.01492187 -4.81640625 0.38671875 C-2.60546875 -0.703125 -2.60546875 -0.703125 0 0 Z " fill="#53CEDA" transform="translate(206.60546875,68.703125)"/>
<path d="M0 0 C4.59271248 2.97878748 7.19683911 5.78593378 9 11 C0.29688462 17.5044336 -9.06178166 22.89738528 -18.38964844 28.44042969 C-22.48672217 30.88825114 -26.55657943 33.3799375 -30.625 35.875 C-36.73056729 39.61620194 -42.84746889 43.33630685 -49 47 C-57.44646925 40.84965831 -57.44646925 40.84965831 -61 37 C-53.53771484 28.79148633 -43.48398928 23.33510494 -34.125 17.5625 C-26.73816585 12.98416355 -19.40425875 8.38268697 -12.26953125 3.41796875 C-8.38685107 0.99212898 -4.59775684 -0.87576321 0 0 Z " fill="#52CCD7" transform="translate(237,91)"/>
<path d="M0 0 C0.66 0.99 1.32 1.98 2 3 C1.67 3.33 1.34 3.66 1 4 C0.8956478 5.85555896 0.86200892 7.71511456 0.85523987 9.57359314 C0.84834137 10.78371567 0.84144287 11.9938382 0.83433533 13.2406311 C0.83162039 14.59393296 0.82898326 15.94723497 0.82641602 17.30053711 C0.82011441 18.71614284 0.81334905 20.13174656 0.80615234 21.54734802 C0.79145605 24.60249862 0.77974213 27.65764142 0.77020454 30.71281242 C0.75479213 35.53998822 0.73084396 40.36709766 0.70530701 45.19422913 C0.6339954 58.92298193 0.57427274 72.65177277 0.52319336 86.38061523 C0.4949265 93.95770445 0.45956549 101.53472769 0.41653961 109.1117478 C0.38970332 113.91400433 0.37183756 118.71618618 0.36050236 123.51850307 C0.35140017 126.50247346 0.33404985 129.48635286 0.31432343 132.47027016 C0.30682665 133.85782827 0.30276559 135.24540968 0.30232811 136.63298798 C0.30125139 138.52182693 0.28687702 140.41064458 0.27174377 142.29942322 C0.26751184 143.35818633 0.2632799 144.41694944 0.25891972 145.50779629 C0 148 0 148 -2 150 C-2.04670027 131.03305802 -2.08197916 112.0661277 -2.10362434 93.09914017 C-2.11394126 84.29263641 -2.12800953 75.48616835 -2.15087891 66.6796875 C-2.17080006 59.00484657 -2.18371341 51.3300315 -2.18817699 43.65516543 C-2.19078653 39.59058606 -2.19692871 35.52608065 -2.21146011 31.46152496 C-2.2250239 27.63666955 -2.22922509 23.81191866 -2.22621536 19.98704147 C-2.22676607 18.58256589 -2.23075071 17.17808685 -2.23841095 15.77363205 C-2.24835275 13.85702792 -2.24477936 11.94036784 -2.24050903 10.02374268 C-2.24235262 8.95077564 -2.24419621 7.87780861 -2.24609566 6.77232742 C-2.00020152 4.00227022 -1.42977021 2.3566801 0 0 Z " fill="#7E8285" transform="translate(50,97)"/>
<path d="M0 0 C0.66 0.99 1.32 1.98 2 3 C1.67 3.33 1.34 3.66 1 4 C0.87662826 5.84031989 0.82208692 7.68529411 0.79467773 9.52954102 C0.77473251 10.71068985 0.75478729 11.89183868 0.73423767 13.10877991 C0.70916893 15.03686745 0.70916893 15.03686745 0.68359375 17.00390625 C0.66281265 18.31205795 0.64203156 19.62020966 0.62062073 20.96800232 C0.565337 24.45155447 0.51595569 27.9351666 0.46777344 31.41882324 C0.41760426 34.9713273 0.36189433 38.5237439 0.30664062 42.07617188 C0.19898209 49.05070546 0.09755433 56.02531798 0 63 C-0.33 63 -0.66 63 -1 63 C-1.02314476 55.08113286 -1.040926 47.1622798 -1.05181217 39.24338722 C-1.05703632 35.56654289 -1.0641255 31.88972166 -1.07543945 28.21289062 C-1.08628493 24.6662104 -1.09228037 21.11955243 -1.09487724 17.5728569 C-1.09672849 16.21803817 -1.10034338 14.86322069 -1.10573006 13.50841141 C-1.11296238 11.61450635 -1.11340824 9.72057902 -1.11352539 7.82666016 C-1.115746 6.74744293 -1.11796661 5.66822571 -1.12025452 4.55630493 C-1 2 -1 2 0 0 Z " fill="#E3E6E8" transform="translate(50,97)"/>
<path d="M0 0 C1.98 1.32 3.96 2.64 6 4 C5.01 4.33 4.02 4.66 3 5 C3 4.34 3 3.68 3 3 C-0.11785113 3.64644661 -0.11785113 3.64644661 -1 6 C-1.99 6 -2.98 6 -4 6 C-4.33 8.64 -4.66 11.28 -5 14 C-6.32 13.67 -7.64 13.34 -9 13 C-9 8.46546613 -8.54615565 7.99000197 -5.625 4.8125 C-4.99851563 4.11769531 -4.37203125 3.42289062 -3.7265625 2.70703125 C-2 1 -2 1 0 0 Z " fill="#499AA1" transform="translate(142,88)"/>
<path d="M0 0 C0 0.66 0 1.32 0 2 C-0.763125 2.45375 -1.52625 2.9075 -2.3125 3.375 C-5.0282672 5.0170918 -6.17364996 6.47789757 -8 9 C-8.66 9 -9.32 9 -10 9 C-10 9.66 -10 10.32 -10 11 C-10.66 11 -11.32 11 -12 11 C-12.33 11.66 -12.66 12.32 -13 13 C-13.33 12.01 -13.66 11.02 -14 10 C-14.99 9.67 -15.98 9.34 -17 9 C-14.54481265 7.49462965 -12.0861548 5.99555574 -9.625 4.5 C-8.92632812 4.07074219 -8.22765625 3.64148438 -7.5078125 3.19921875 C-2.2265625 0 -2.2265625 0 0 0 Z " fill="#DADDE1" transform="translate(269,122)"/>
<path d="M0 0 C2.475 0.99 2.475 0.99 5 2 C5 2.66 5 3.32 5 4 C5.66 4 6.32 4 7 4 C7 4.66 7 5.32 7 6 C8.65 6.33 10.3 6.66 12 7 C10.35 8.65 8.7 10.3 7 12 C6.67 11.01 6.34 10.02 6 9 C5.34 9 4.68 9 4 9 C3.896875 8.360625 3.79375 7.72125 3.6875 7.0625 C3.460625 6.381875 3.23375 5.70125 3 5 C2.01 4.67 1.02 4.34 0 4 C0 2.68 0 1.36 0 0 Z " fill="#4CD1D9" transform="translate(173,102)"/>
<path d="M0 0 C-1.93304333 1.65132849 -3.87104737 3.29611041 -5.8125 4.9375 C-6.63331055 5.64036133 -6.63331055 5.64036133 -7.47070312 6.35742188 C-9.97214225 8.46469483 -11.86702907 9.95567636 -15 11 C-15.33 10.34 -15.66 9.68 -16 9 C-15.34 8.67 -14.68 8.34 -14 8 C-14 7.34 -14 6.68 -14 6 C-12.34467377 4.98133771 -10.67739862 3.98189187 -9 3 C-8.67 2.34 -8.34 1.68 -8 1 C-3.6 -1.2 -3.6 -1.2 0 0 Z " fill="#4CAEB2" transform="translate(200,98)"/>
<path d="M0 0 C0 0.66 0 1.32 0 2 C-2.046875 3.4375 -2.046875 3.4375 -4.75 5 C-5.63171875 5.515625 -6.5134375 6.03125 -7.421875 6.5625 C-11.61510878 8.9005455 -14.11384538 10.27145303 -19 10 C-18.01 9.34 -17.02 8.68 -16 8 C-15.67 7.34 -15.34 6.68 -15 6 C-12.6875 5.4375 -12.6875 5.4375 -10 5 C-8.66457061 4.67516582 -7.33038449 4.3449145 -6 4 C-6 3.34 -6 2.68 -6 2 C-3 0 -3 0 0 0 Z " fill="#51A4B0" transform="translate(177,114)"/>
<path d="M0 0 C1.65 0.33 3.3 0.66 5 1 C3.33333333 2.66666667 1.66666667 4.33333333 0 6 C-0.7734375 6.8971875 -0.7734375 6.8971875 -1.5625 7.8125 C-3 9 -3 9 -7 9 C-6.67 7.68 -6.34 6.36 -6 5 C-4.02 4.67 -2.04 4.34 0 4 C0 2.68 0 1.36 0 0 Z " fill="#55C3C8" transform="translate(208,85)"/>
<path d="M0 0 C0 1.65 0 3.3 0 5 C-0.66 5 -1.32 5 -2 5 C-2.66 6.32 -3.32 7.64 -4 9 C-5.98 9 -7.96 9 -10 9 C-2.8 0 -2.8 0 0 0 Z " fill="#4FB6BC" transform="translate(190,81)"/>
<path d="M0 0 C-0.66 2.64 -1.32 5.28 -2 8 C-4.4375 7.1875 -4.4375 7.1875 -7 6 C-7.33 5.01 -7.66 4.02 -8 3 C-5.53387212 -0.1151089 -3.89156016 -0.31553191 0 0 Z " fill="#5DCBD1" transform="translate(184,124)"/>
<path d="M0 0 C0.99 0.99 1.98 1.98 3 3 C1.72648692 6.82053924 0.37362475 7.23021375 -3.0625 9.1875 C-3.98160156 9.71730469 -4.90070313 10.24710938 -5.84765625 10.79296875 C-6.55792969 11.19128906 -7.26820313 11.58960937 -8 12 C-8 10.35 -8 8.7 -8 7 C-6.02 7 -4.04 7 -2 7 C-2 6.34 -2 5.68 -2 5 C-1.34 5 -0.68 5 0 5 C0 3.35 0 1.7 0 0 Z " fill="#50A9B0" transform="translate(243,97)"/>
<path d="M0 0 C0 1.98 0 3.96 0 6 C-1.98 6.99 -1.98 6.99 -4 8 C-5 7 -6 6 -7 5 C-7.66 4.67 -8.32 4.34 -9 4 C-2.25 0 -2.25 0 0 0 Z " fill="#C1C3C5" transform="translate(177,24)"/>
<path d="M0 0 C2.16874252 0.50603992 3.99967627 0.99983813 6 2 C6 1.34 6 0.68 6 0 C6.66 0 7.32 0 8 0 C7.67 1.32 7.34 2.64 7 4 C7.66 4 8.32 4 9 4 C9 5.32 9 6.64 9 8 C4.7257442 6.4169423 2.73468206 3.49431596 0 0 Z " fill="#55BCC4" transform="translate(149,115)"/>
<path d="M0 0 C2.82328089 2.82328089 2.79396942 5.08541907 3 9 C1.5625 10.9375 1.5625 10.9375 0 12 C-1.57312496 8.32937509 -2.14440048 6.55697326 -1.125 2.625 C-0.75375 1.75875 -0.3825 0.8925 0 0 Z " fill="#4DACAF" transform="translate(213,74)"/>
<path d="M0 0 C0.66 0.33 1.32 0.66 2 1 C1.67 2.65 1.34 4.3 1 6 C-0.32 6.33 -1.64 6.66 -3 7 C-3 6.34 -3 5.68 -3 5 C-2.34 5 -1.68 5 -1 5 C-1 4.34 -1 3.68 -1 3 C-2.32 3.99 -3.64 4.98 -5 6 C-5.66 5.67 -6.32 5.34 -7 5 C-2.25 1.125 -2.25 1.125 0 0 Z " fill="#BCBFC3" transform="translate(61,87)"/>
<path d="M0 0 C0.66 0.33 1.32 0.66 2 1 C-1.82180842 5.4008703 -4.47371099 6.80805531 -10 8 C-6.97727468 4.74475735 -3.74281699 2.38179263 0 0 Z " fill="#42939C" transform="translate(197,112)"/>
<path d="M0 0 C2.25 -0.3125 2.25 -0.3125 5 0 C7.3125 2.5 7.3125 2.5 9 5 C8.01 5.495 8.01 5.495 7 6 C7 5.34 7 4.68 7 4 C5.68 4 4.36 4 3 4 C3 3.34 3 2.68 3 2 C2.01 1.67 1.02 1.34 0 1 C0 0.67 0 0.34 0 0 Z " fill="#4F9FA7" transform="translate(232,91)"/>
<path d="M0 0 C0.66 0.33 1.32 0.66 2 1 C0.6875 2.5 0.6875 2.5 -1 4 C-1.99 4 -2.98 4 -4 4 C-4 4.66 -4 5.32 -4 6 C-4.99 6.33 -5.98 6.66 -7 7 C-7.66 6.34 -8.32 5.68 -9 5 C-7.54735962 4.1361871 -6.0876837 3.28419546 -4.625 2.4375 C-3.40683594 1.72400391 -3.40683594 1.72400391 -2.1640625 0.99609375 C-1.44992188 0.66738281 -0.73578125 0.33867187 0 0 Z " fill="#C5C8CC" transform="translate(200,160)"/>
<path d="M0 0 C-1.4638611 4.39158329 -3.97831338 4.87947433 -8 7 C-8 6.01 -8 5.02 -8 4 C-7.34 4 -6.68 4 -6 4 C-6 3.34 -6 2.68 -6 2 C-2.25 0 -2.25 0 0 0 Z " fill="#55B4BC" transform="translate(222,115)"/>
<path d="M0 0 C1.32 0 2.64 0 4 0 C4.66 0.99 5.32 1.98 6 3 C5.67 3.99 5.34 4.98 5 6 C3.2925002 4.71937515 1.62626404 3.38232443 0 2 C0 1.34 0 0.68 0 0 Z " fill="#4FB4B7" transform="translate(137,103)"/>
<path d="M0 0 C0 1.98 0 3.96 0 6 C-1.32 5.67 -2.64 5.34 -4 5 C-4 3.68 -4 2.36 -4 1 C-2 0 -2 0 0 0 Z " fill="#54B1B7" transform="translate(137,96)"/>
<path d="M0 0 C-0.33 1.32 -0.66 2.64 -1 4 C-1.66 4 -2.32 4 -3 4 C-3.33 4.99 -3.66 5.98 -4 7 C-4.33 6.01 -4.66 5.02 -5 4 C-5.66 3.67 -6.32 3.34 -7 3 C-2.25 0 -2.25 0 0 0 Z " fill="#DEE0E6" transform="translate(90,72)"/>
<path d="M0 0 C2 2 2 2 2 5 C0.02 5 -1.96 5 -4 5 C-2.25 1.125 -2.25 1.125 0 0 Z " fill="#FAFBFE" transform="translate(260,274)"/>
<path d="M0 0 C2.31 0 4.62 0 7 0 C5.35 1.65 3.7 3.3 2 5 C0 2 0 2 0 0 Z " fill="#4BADB4" transform="translate(178,109)"/>
<path d="M0 0 C1.65 0.33 3.3 0.66 5 1 C3.35 2.65 1.7 4.3 0 6 C-0.66 5.34 -1.32 4.68 -2 4 C-1.34 4 -0.68 4 0 4 C0 2.68 0 1.36 0 0 Z " fill="#4EAFB7" transform="translate(208,85)"/>
<path d="M0 0 C0.66 0.99 1.32 1.98 2 3 C1.67 3.33 1.34 3.66 1 4 C0.76636119 5.84891946 0.58696365 7.70488031 0.4375 9.5625 C0.35371094 10.57441406 0.26992188 11.58632812 0.18359375 12.62890625 C0.12300781 13.41136719 0.06242187 14.19382812 0 15 C-0.33 15 -0.66 15 -1 15 C-1.02693575 12.87506859 -1.04636628 10.75004088 -1.0625 8.625 C-1.07410156 7.44164063 -1.08570313 6.25828125 -1.09765625 5.0390625 C-1 2 -1 2 0 0 Z " fill="#C6C7CC" transform="translate(50,97)"/>
<path d="M0 0 C-1.04874998 2.62187494 -1.64931313 3.79371361 -4.125 5.25 C-4.74375 5.4975 -5.3625 5.745 -6 6 C-6.33 5.34 -6.66 4.68 -7 4 C-6.34 3.67 -5.68 3.34 -5 3 C-5 2.34 -5 1.68 -5 1 C-2 0 -2 0 0 0 Z " fill="#51B6BE" transform="translate(191,103)"/>
<path d="M0 0 C2.97 0.495 2.97 0.495 6 1 C3.37801226 3.15377564 1.35595828 4.40072174 -2 5 C-1.34 3.35 -0.68 1.7 0 0 Z " fill="#AFB1B5" transform="translate(97,81)"/>
<path d="M0 0 C-5.2734375 3.22265625 -5.2734375 3.22265625 -7 4 C-7.66 3.67 -8.32 3.34 -9 3 C-8.67 2.01 -8.34 1.02 -8 0 C-2.25 -1.125 -2.25 -1.125 0 0 Z " fill="#95989F" transform="translate(234,307)"/>
<path d="M0 0 C1.32 0 2.64 0 4 0 C5.75 2.5 5.75 2.5 7 5 C6.01 5 5.02 5 4 5 C1.8125 2.5 1.8125 2.5 0 0 Z " fill="#59BCC2" transform="translate(143,109)"/>
<path d="M0 0 C0.66 0.33 1.32 0.66 2 1 C0.25 3.0625 0.25 3.0625 -2 5 C-4.25 4.75 -4.25 4.75 -6 4 C-4.02 2.68 -2.04 1.36 0 0 Z " fill="#41939A" transform="translate(205,107)"/>
<path d="M0 0 C0 0.66 0 1.32 0 2 C-2.2727675 3.49524178 -4.5679943 4.78399715 -7 6 C-7.66 5.34 -8.32 4.68 -9 4 C-2.25 0 -2.25 0 0 0 Z " fill="#8C8E93" transform="translate(164,31)"/>
</svg>
